<?xml version="1.0" encoding="UTF-8" standalone="no"?>
<!-- Created with Inkscape (http://www.inkscape.org/) -->

<svg
   xmlns:dc="http://purl.org/dc/elements/1.1/"
   xmlns:cc="http://creativecommons.org/ns#"
   xmlns:rdf="http://www.w3.org/1999/02/22-rdf-syntax-ns#"
   xmlns:svg="http://www.w3.org/2000/svg"
   xmlns="http://www.w3.org/2000/svg"
   xmlns:sodipodi="http://sodipodi.sourceforge.net/DTD/sodipodi-0.dtd"
   xmlns:inkscape="http://www.inkscape.org/namespaces/inkscape"
   version="1.1"
   width="125"
   height="125"
   id="svg2"
   inkscape:version="0.48.3.1 r9886"
   sodipodi:docname="125x125.svg"
   inkscape:export-filename="/home/daniel/Downloads/elementary-artwork-master/125x125.png"
   inkscape:export-xdpi="90"
   inkscape:export-ydpi="90">
  <sodipodi:namedview
     pagecolor="#ffffff"
     bordercolor="#666666"
     borderopacity="1"
     objecttolerance="10"
     gridtolerance="10"
     guidetolerance="10"
     inkscape:pageopacity="0"
     inkscape:pageshadow="2"
     inkscape:window-width="1280"
     inkscape:window-height="751"
     id="namedview9"
     showgrid="false"
     inkscape:zoom="1.888"
     inkscape:cx="90.042373"
     inkscape:cy="62.5"
     inkscape:window-x="0"
     inkscape:window-y="28"
     inkscape:window-maximized="1"
     inkscape:current-layer="svg2" />
  <defs
     id="defs4">
    <inkscape:path-effect
       effect="spiro"
       id="path-effect2991" />
    <inkscape:path-effect
       effect="spiro"
       id="path-effect3177" />
  </defs>
  <metadata
     id="metadata7">
    <rdf:RDF>
      <cc:Work
         rdf:about="">
        <dc:format>image/svg+xml</dc:format>
        <dc:type
           rdf:resource="http://purl.org/dc/dcmitype/StillImage" />
        <dc:title></dc:title>
      </cc:Work>
    </rdf:RDF>
  </metadata>
  <rect
     style="opacity:1;color:#000000;fill:#e6e6e6;fill-opacity:1;fill-rule:nonzero;stroke:none;stroke-width:1;marker:none;visibility:visible;display:inline;overflow:visible;enable-background:accumulate"
     id="rect2986"
     width="125"
     height="125"
     x="0"
     y="0"
     rx="0"
     ry="0" />
  <g
     transform="translate(0,-926.3622)"
     id="layer1"
     style="fill:#ffffff;fill-opacity:1;opacity:0.3">
    <path
       d="m 62.5,942.86217 c -25.957383,0 -47,21.04262 -47,47 0,25.95733 21.042617,47.00003 47,47.00003 25.95738,0 47,-21.0427 47,-47.00003 0,-25.95738 -21.04262,-47 -47,-47 z m 0,3.91667 c 19.734898,0 36.370775,13.26943 41.47261,31.37249 -4.394216,9.06354 -10.646858,17.22391 -18.261465,23.81827 -3.657967,3.1678 -7.651733,5.9918 -12.063334,7.9802 -4.411602,1.9884 -9.264038,3.1166 -14.095103,2.8396 -3.629675,-0.2082 -7.21521,-1.2193 -10.393854,-2.9816 8.423984,-4.5647 16.024789,-10.65074 22.246668,-17.93833 4.083911,-4.78344 7.657027,-10.21966 9.032811,-16.35698 0.687893,-3.06867 0.804465,-6.28243 0.161561,-9.36084 -0.642903,-3.0784 -2.066226,-6.01199 -4.220205,-8.30333 -2.104308,-2.23851 -4.86678,-3.82417 -7.828439,-4.64126 -2.961658,-0.81707 -6.113378,-0.88033 -9.135625,-0.32801 -6.044495,1.10463 -11.441126,4.61759 -15.769479,8.97895 -7.629354,7.68754 -12.345902,18.5348 -11.480729,29.33094 0.432584,5.39808 2.241554,10.70236 5.341354,15.14286 0.69192,0.9911 1.452595,1.9351 2.26677,2.8297 -4.515748,1.5804 -9.191432,2.7054 -13.933541,3.339 -4.071424,-6.5788 -6.423333,-14.33301 -6.423333,-22.63833 0,-23.79427 19.289064,-43.08333 43.083333,-43.08333 z m 0.274166,8.70479 c 3.028587,0.004 6.077752,0.92097 8.494273,2.74656 2.177166,1.64477 3.790381,3.98473 4.704894,6.55553 0.914514,2.57078 1.149207,5.36251 0.837189,8.07322 -0.624041,5.42142 -3.35899,10.39328 -6.663227,14.73646 -5.850572,7.69013 -13.627154,13.8452 -22.276045,18.1538 -0.885283,0.441 -1.784596,0.8601 -2.687813,1.2631 -1.881931,-1.6469 -3.494953,-3.6002 -4.724479,-5.7771 -2.569136,-4.54879 -3.416367,-9.95228 -2.917916,-15.15261 0.49845,-5.20032 2.283072,-10.21234 4.680417,-14.85396 2.779613,-5.38175 6.568464,-10.47943 11.872395,-13.40479 2.651965,-1.46269 5.651723,-2.34431 8.680312,-2.34021 z m 42.422394,28.61125 c 0.25242,1.88666 0.38677,3.81155 0.38677,5.76729 0,23.79433 -19.28906,43.08333 -43.08333,43.08333 -13.363104,0 -25.306012,-6.0833 -33.208438,-15.6324 4.877601,-1.1077 9.644863,-2.699 14.2175,-4.7245 1.999648,1.5229 4.208026,2.7719 6.555521,3.6719 6.760327,2.5918 14.435556,2.2167 21.277296,-0.1518 6.841733,-2.3685 12.908813,-6.6197 18.19781,-11.564 6.300563,-5.88982 11.612771,-12.83203 15.656871,-20.44982 z"
       id="path2993"
       style="fill:#ffffff;fill-opacity:1;stroke:none"
       inkscape:connector-curvature="0" />
  </g>
  <g
     transform="translate(0,-927.36218)"
     id="layer1-0"
     style="fill:#333333">
    <path
       inkscape:connector-curvature="0"
       d="m 62.5,942.86217 c -25.957383,0 -47,21.04262 -47,47 0,25.95733 21.042617,47.00003 47,47.00003 25.95738,0 47,-21.0427 47,-47.00003 0,-25.95738 -21.04262,-47 -47,-47 z m 0,3.91667 c 19.734898,0 36.370775,13.26943 41.47261,31.37249 -4.394216,9.06354 -10.646858,17.22391 -18.261465,23.81827 -3.657967,3.1678 -7.651733,5.9918 -12.063334,7.9802 -4.411602,1.9884 -9.264038,3.1166 -14.095103,2.8396 -3.629675,-0.2082 -7.21521,-1.2193 -10.393854,-2.9816 8.423984,-4.5647 16.024789,-10.65074 22.246668,-17.93833 4.083911,-4.78344 7.657027,-10.21966 9.032811,-16.35698 0.687893,-3.06867 0.804465,-6.28243 0.161561,-9.36084 -0.642903,-3.0784 -2.066226,-6.01199 -4.220205,-8.30333 -2.104308,-2.23851 -4.86678,-3.82417 -7.828439,-4.64126 -2.961658,-0.81707 -6.113378,-0.88033 -9.135625,-0.32801 -6.044495,1.10463 -11.441126,4.61759 -15.769479,8.97895 -7.629354,7.68754 -12.345902,18.5348 -11.480729,29.33094 0.432584,5.39808 2.241554,10.70236 5.341354,15.14286 0.69192,0.9911 1.452595,1.9351 2.26677,2.8297 -4.515748,1.5804 -9.191432,2.7054 -13.933541,3.339 -4.071424,-6.5788 -6.423333,-14.33301 -6.423333,-22.63833 0,-23.79427 19.289064,-43.08333 43.083333,-43.08333 z m 0.274166,8.70479 c 3.028587,0.004 6.077752,0.92097 8.494273,2.74656 2.177166,1.64477 3.790381,3.98473 4.704894,6.55553 0.914514,2.57078 1.149207,5.36251 0.837189,8.07322 -0.624041,5.42142 -3.35899,10.39328 -6.663227,14.73646 -5.850572,7.69013 -13.627154,13.8452 -22.276045,18.1538 -0.885283,0.441 -1.784596,0.8601 -2.687813,1.2631 -1.881931,-1.6469 -3.494953,-3.6002 -4.724479,-5.7771 -2.569136,-4.54879 -3.416367,-9.95228 -2.917916,-15.15261 0.49845,-5.20032 2.283072,-10.21234 4.680417,-14.85396 2.779613,-5.38175 6.568464,-10.47943 11.872395,-13.40479 2.651965,-1.46269 5.651723,-2.34431 8.680312,-2.34021 z m 42.422394,28.61125 c 0.25242,1.88666 0.38677,3.81155 0.38677,5.76729 0,23.79433 -19.28906,43.08333 -43.08333,43.08333 -13.363104,0 -25.306012,-6.0833 -33.208438,-15.6324 4.877601,-1.1077 9.644863,-2.699 14.2175,-4.7245 1.999648,1.5229 4.208026,2.7719 6.555521,3.6719 6.760327,2.5918 14.435556,2.2167 21.277296,-0.1518 6.841733,-2.3685 12.908813,-6.6197 18.19781,-11.564 6.300563,-5.88982 11.612771,-12.83203 15.656871,-20.44982 z"
       id="path2993-1"
       style="fill:#333333;fill-opacity:1;stroke:none" />
  </g>
</svg>
