<?xml version="1.0" encoding="UTF-8" standalone="no"?>
<!-- Created with Inkscape (http://www.inkscape.org/) -->

<svg
   xmlns:dc="http://purl.org/dc/elements/1.1/"
   xmlns:cc="http://creativecommons.org/ns#"
   xmlns:rdf="http://www.w3.org/1999/02/22-rdf-syntax-ns#"
   xmlns:svg="http://www.w3.org/2000/svg"
   xmlns="http://www.w3.org/2000/svg"
   xmlns:sodipodi="http://sodipodi.sourceforge.net/DTD/sodipodi-0.dtd"
   xmlns:inkscape="http://www.inkscape.org/namespaces/inkscape"
   width="200"
   height="200"
   id="svg2"
   version="1.1"
   inkscape:version="0.48.3.1 r9886"
   sodipodi:docname="200x200.svg"
   inkscape:export-filename="/home/daniel/200x200.png"
   inkscape:export-xdpi="90"
   inkscape:export-ydpi="90">
  <defs
     id="defs4">
    <inkscape:path-effect
       is_visible="true"
       id="path-effect2991"
       effect="spiro" />
    <inkscape:path-effect
       effect="spiro"
       id="path-effect3177"
       is_visible="true" />
  </defs>
  <sodipodi:namedview
     id="base"
     pagecolor="#ffffff"
     bordercolor="#666666"
     borderopacity="1.0"
     inkscape:pageopacity="0.0"
     inkscape:pageshadow="2"
     inkscape:zoom="1"
     inkscape:cx="18.03137"
     inkscape:cy="73.85403"
     inkscape:document-units="px"
     inkscape:current-layer="layer1"
     showgrid="false"
     showguides="false"
     inkscape:guide-bbox="true"
     inkscape:window-width="1280"
     inkscape:window-height="751"
     inkscape:window-x="0"
     inkscape:window-y="28"
     inkscape:window-maximized="1">
    <sodipodi:guide
       orientation="1,0"
       position="100,100"
       id="guide2985" />
    <sodipodi:guide
       orientation="1,0"
       position="700,555.18566"
       id="guide2987" />
    <sodipodi:guide
       orientation="0,1"
       position="-102.43278,100"
       id="guide2989" />
    <sodipodi:guide
       orientation="0,1"
       position="-169.01408,700"
       id="guide2991" />
  </sodipodi:namedview>
  <metadata
     id="metadata7">
    <rdf:RDF>
      <cc:Work
         rdf:about="">
        <dc:format>image/svg+xml</dc:format>
        <dc:type
           rdf:resource="http://purl.org/dc/dcmitype/StillImage" />
        <dc:title></dc:title>
      </cc:Work>
    </rdf:RDF>
  </metadata>
  <g
     inkscape:label="Layer 1"
     inkscape:groupmode="layer"
     id="layer1"
     transform="translate(0,-852.36218)">
    <path
       style="fill:#333333;fill-opacity:1;stroke:none"
       d="m 100,862.36217 c -49.705626,0 -90,40.29438 -90,90 0,49.70563 40.294374,90.00003 90,90.00003 49.70562,0 90,-40.2944 90,-90.00003 0,-49.70562 -40.29438,-90 -90,-90 z m 0,7.5 c 37.79023,0 69.64616,25.40955 79.41563,60.075 -8.41445,17.35569 -20.38759,32.98195 -34.96876,45.60937 -7.00461,6.06607 -14.65225,11.4737 -23.1,15.28125 -8.44775,3.80756 -17.73965,5.96801 -26.99062,5.4375 -6.95044,-0.39859 -13.81636,-2.3347 -19.903126,-5.70937 16.131036,-8.74085 30.685766,-20.39503 42.600006,-34.35 7.82025,-9.15977 14.66239,-19.56955 17.29687,-31.32188 1.31724,-5.87616 1.54046,-12.03018 0.30937,-17.925 -1.23109,-5.89481 -3.9566,-11.51232 -8.08124,-15.9 -4.02953,-4.2865 -9.31937,-7.32287 -14.99063,-8.8875 -5.67126,-1.56462 -11.70647,-1.68575 -17.49375,-0.62812 -11.574564,2.11525 -21.908538,8.8422 -30.196876,17.19375 -14.6094,14.7208 -23.641088,35.49216 -21.984374,56.16562 0.828354,10.33673 4.29234,20.49389 10.228124,28.99688 1.324954,1.89799 2.781566,3.70576 4.340626,5.41875 -8.647178,3.02632 -17.600616,5.1805 -26.68125,6.39375 -7.796344,-12.5978 -12.3,-27.44621 -12.3,-43.35 0,-45.5635 36.936506,-82.5 82.5,-82.5 z m 0.525,16.66875 c 5.79942,0.008 11.63825,1.76356 16.26563,5.25937 4.16904,3.14956 7.25817,7.63034 9.00937,12.55313 1.7512,4.92279 2.20061,10.26865 1.60313,15.45937 -1.19497,10.38144 -6.43211,19.90203 -12.75937,28.21875 -11.20323,14.72579 -26.09455,26.51201 -42.65626,34.7625 -1.695222,0.84451 -3.41731,1.6472 -5.146876,2.41875 -3.603698,-3.15357 -6.692462,-6.8939 -9.046874,-11.0625 -4.919622,-8.71042 -6.54198,-19.05754 -5.5875,-29.01562 0.95448,-9.95807 4.37184,-19.55555 8.9625,-28.44375 5.322666,-10.30548 12.577912,-20.06699 22.734374,-25.66875 5.078236,-2.80089 10.822446,-4.48911 16.621876,-4.48125 z m 81.23437,54.7875 c 0.48335,3.61275 0.74063,7.29871 0.74063,11.04375 0,45.56349 -36.9365,82.50003 -82.5,82.50003 -25.588922,0 -48.458322,-11.649 -63.590626,-29.9344 9.340088,-2.1213 18.468886,-5.16836 27.225,-9.04688 3.829114,2.91613 8.057922,5.30788 12.553126,7.03128 12.94531,4.9629 27.64255,4.2448 40.74376,-0.2907 13.10119,-4.53539 24.719,-12.67598 34.84687,-22.14371 12.06491,-11.27851 22.23722,-24.57212 29.98124,-39.15937 z"
       id="path2993"
       inkscape:connector-curvature="0" />
  </g>
</svg>
