<?xml version="1.0" encoding="UTF-8" standalone="no"?>
<svg
   xmlns:dc="http://purl.org/dc/elements/1.1/"
   xmlns:cc="http://creativecommons.org/ns#"
   xmlns:rdf="http://www.w3.org/1999/02/22-rdf-syntax-ns#"
   xmlns:svg="http://www.w3.org/2000/svg"
   xmlns="http://www.w3.org/2000/svg"
   xmlns:xlink="http://www.w3.org/1999/xlink"
   xmlns:sodipodi="http://sodipodi.sourceforge.net/DTD/sodipodi-0.dtd"
   xmlns:inkscape="http://www.inkscape.org/namespaces/inkscape"
   inkscape:version="1.0 (4035a4fb49, 2020-05-01)"
   sodipodi:docname="vala-social.svg"
   height="64"
   width="64"
   version="1.1"
   id="svg59">
  <sodipodi:namedview
     inkscape:document-rotation="0"
     inkscape:current-layer="svg59"
     inkscape:window-maximized="1"
     inkscape:window-y="30"
     inkscape:window-x="0"
     inkscape:cy="28.093168"
     inkscape:cx="11.619163"
     inkscape:zoom="6.1127913"
     showguides="false"
     showgrid="false"
     id="namedview39"
     inkscape:window-height="1013"
     inkscape:window-width="1920"
     inkscape:pageshadow="2"
     inkscape:pageopacity="0"
     guidetolerance="10"
     gridtolerance="10"
     objecttolerance="10"
     borderopacity="1"
     bordercolor="#666666"
     pagecolor="#ffffff" />
  <metadata
     id="metadata63">
    <rdf:RDF>
      <cc:Work
         rdf:about="">
        <dc:format>image/svg+xml</dc:format>
        <dc:type
           rdf:resource="http://purl.org/dc/dcmitype/StillImage" />
        <dc:title></dc:title>
      </cc:Work>
    </rdf:RDF>
  </metadata>
  <defs
     id="defs37">
    <linearGradient
       id="linearGradient876">
      <stop
         style="stop-color:#a56de2;stop-opacity:1"
         offset="0"
         id="stop872" />
      <stop
         style="stop-color:#7239b3;stop-opacity:1"
         offset="1"
         id="stop874" />
    </linearGradient>
    <radialGradient
       id="a"
       gradientUnits="userSpaceOnUse"
       cy="43.5"
       cx="4.993"
       gradientTransform="matrix(2.0038 0 0 1.4 27.988 -17.4)"
       r="2.5">
      <stop
         stop-color="#181818"
         offset="0"
         id="stop2" />
      <stop
         stop-color="#181818"
         stop-opacity="0"
         offset="1"
         id="stop4" />
    </radialGradient>
    <radialGradient
       id="b"
       gradientUnits="userSpaceOnUse"
       cy="43.5"
       cx="4.993"
       gradientTransform="matrix(2.0038 0 0 1.4 -20.012 -104.4)"
       r="2.5">
      <stop
         stop-color="#181818"
         offset="0"
         id="stop7" />
      <stop
         stop-color="#181818"
         stop-opacity="0"
         offset="1"
         id="stop9" />
    </radialGradient>
    <linearGradient
       id="c"
       y2="39.999"
       gradientUnits="userSpaceOnUse"
       x2="25.058"
       y1="47.028"
       x1="25.058">
      <stop
         stop-color="#181818"
         stop-opacity="0"
         offset="0"
         id="stop12" />
      <stop
         stop-color="#181818"
         offset=".5"
         id="stop14" />
      <stop
         stop-color="#181818"
         stop-opacity="0"
         offset="1"
         id="stop16" />
    </linearGradient>
    <linearGradient
       id="e"
       y2="43"
       gradientUnits="userSpaceOnUse"
       x2="24"
       gradientTransform="matrix(1.4324 0 0 1.4363 -2.378 -2.47)"
       y1="5"
       x1="24">
      <stop
         stop-color="#fff"
         offset="0"
         id="stop19" />
      <stop
         stop-color="#fff"
         stop-opacity=".235"
         offset=".063"
         id="stop21" />
      <stop
         stop-color="#fff"
         stop-opacity=".157"
         offset=".951"
         id="stop23" />
      <stop
         stop-color="#fff"
         stop-opacity=".392"
         offset="1"
         id="stop25" />
    </linearGradient>
    <linearGradient
       gradientTransform="matrix(1.1636364,0,0,1.1636364,-5.2363636,-5.2363636)"
       xlink:href="#linearGradient876"
       id="linearGradient878"
       x1="31.293236"
       y1="5.0079265"
       x2="31.293236"
       y2="59.328876"
       gradientUnits="userSpaceOnUse" />
  </defs>
  <rect
     height="64"
     width="64"
     y="0"
     x="0"
     fill="url(#d)"
     color="#000000"
     id="rect47"
     style="fill:url(#linearGradient878);fill-opacity:1;stroke-width:1.16364" />
  <path
     opacity=".15"
     style="isolation:auto;mix-blend-mode:normal;fill:#452981;fill-opacity:1"
     d="M31.462 15.984c-1.35 0-2.705.166-4.06.493-1.335.31-2.624.752-3.866 1.326a20.767 20.767 0 0 0-3.467 2.002 1.016 1.016 0 0 0-.005.004 17.304 17.304 0 0 0-2.844 2.562 1.016 1.016 0 0 0-.006.008 12.544 12.544 0 0 0-1.95 3.012 1.016 1.016 0 0 0-.005.011 8.348 8.348 0 0 0-.729 3.373c0 .912.11 1.722.373 2.434a1.016 1.016 0 0 0 .008.021c.272.69.68 1.293 1.217 1.75a1.016 1.016 0 0 0 .014.012c.54.444 1.188.754 1.908.947a1.016 1.016 0 0 0 .023.006c.702.171 1.473.252 2.32.252a1.016 1.016 0 0 0 1.016-1.015c0-.376-.132-.636-.266-.85l.047.084a4.014 4.014 0 0 1-.148-.371c0-.001-.002 0-.002-.002a7.263 7.263 0 0 1-.178-.703 8.528 8.528 0 0 1-.072-1.236c0-2.366.542-4.247 1.588-5.75.797-1.131 1.9-1.962 3.17-2.653l.691 29.322a1.016 1.016 0 0 0 1.016.992h6.53a1.016 1.016 0 0 0 .952-.66l12.594-33.779a1.016 1.016 0 0 0-.951-1.37h-3.164a1.016 1.016 0 0 0-.961.685l-7.649 22.25-.314-22.066a1.016 1.016 0 0 0-.914-.996 18.86 18.86 0 0 0-.934-.07h-.002a18.748 18.748 0 0 0-.98-.024z"
     fill="#201c2c"
     color="#000"
     id="path53" />
  <path
     opacity=".3"
     color="#000"
     fill="#201c2c"
     style="isolation:auto;mix-blend-mode:normal;fill:#452981;fill-opacity:1"
     d="M27.255 50.999l-.73-30.967q-3.188 1.195-4.98 3.74-1.772 2.546-1.772 6.331 0 .863.089 1.417.11.531.221.863.111.31.2.487.11.177.11.31-1.173 0-2.08-.221-.908-.244-1.528-.753-.598-.508-.93-1.35-.31-.84-.31-2.08 0-1.505.641-2.966.664-1.46 1.793-2.767 1.151-1.305 2.679-2.412 1.55-1.107 3.298-1.904 1.77-.819 3.674-1.261Q29.556 17 31.46 17q.509 0 .93.022.442.022.884.066l.399 27.89 9.54-27.758h3.165L33.784 51h-6.53z"
     id="path55" />
  <path
     fill="#fff"
     d="M27.255 49.999l-.73-30.967q-3.188 1.195-4.98 3.74-1.772 2.546-1.772 6.331 0 .863.089 1.417.11.531.221.863.111.31.2.487.11.177.11.31-1.173 0-2.08-.221-.908-.244-1.528-.753-.598-.508-.93-1.35-.31-.84-.31-2.08 0-1.505.641-2.966.664-1.46 1.793-2.767 1.151-1.305 2.679-2.412 1.55-1.107 3.298-1.904 1.77-.819 3.674-1.261Q29.556 16 31.46 16q.509 0 .93.022.442.022.884.066l.399 27.89 9.54-27.758h3.165L33.784 50h-6.53z"
     id="path57" />
</svg>
