<?xml version="1.0" encoding="UTF-8" standalone="no"?>
<!-- Created with Inkscape (http://www.inkscape.org/) -->

<svg
   xmlns:dc="http://purl.org/dc/elements/1.1/"
   xmlns:cc="http://creativecommons.org/ns#"
   xmlns:rdf="http://www.w3.org/1999/02/22-rdf-syntax-ns#"
   xmlns:svg="http://www.w3.org/2000/svg"
   xmlns="http://www.w3.org/2000/svg"
   xmlns:sodipodi="http://sodipodi.sourceforge.net/DTD/sodipodi-0.dtd"
   xmlns:inkscape="http://www.inkscape.org/namespaces/inkscape"
   version="1.1"
   width="16"
   height="16"
   id="svg2"
   inkscape:version="0.48.3.1 r9886"
   sodipodi:docname="16x16.svg"
   inkscape:export-filename="/home/daniel/Downloads/elementary-artwork-master/16x16.png"
   inkscape:export-xdpi="90"
   inkscape:export-ydpi="90">
  <sodipodi:namedview
     pagecolor="#ffffff"
     bordercolor="#666666"
     borderopacity="1"
     objecttolerance="10"
     gridtolerance="10"
     guidetolerance="10"
     inkscape:pageopacity="0"
     inkscape:pageshadow="2"
     inkscape:window-width="1280"
     inkscape:window-height="751"
     id="namedview9"
     showgrid="false"
     inkscape:zoom="1"
     inkscape:cx="7.9713262"
     inkscape:cy="8"
     inkscape:window-x="0"
     inkscape:window-y="28"
     inkscape:window-maximized="1"
     inkscape:current-layer="svg2"
     fit-margin-top="0"
     fit-margin-left="0"
     fit-margin-right="0"
     fit-margin-bottom="0"
     showborder="false">
    <inkscape:grid
       type="xygrid"
       id="grid2990"
       empspacing="5"
       visible="true"
       enabled="true"
       snapvisiblegridlinesonly="true" />
  </sodipodi:namedview>
  <defs
     id="defs4">
    <inkscape:path-effect
       effect="spiro"
       id="path-effect2991"
       is_visible="true" />
    <inkscape:path-effect
       effect="spiro"
       id="path-effect3177"
       is_visible="true" />
  </defs>
  <metadata
     id="metadata7">
    <rdf:RDF>
      <cc:Work
         rdf:about="">
        <dc:format>image/svg+xml</dc:format>
        <dc:type
           rdf:resource="http://purl.org/dc/dcmitype/StillImage" />
        <dc:title></dc:title>
      </cc:Work>
    </rdf:RDF>
  </metadata>
  <g
     transform="matrix(0.14893617,0,0,0.14893612,-1.3085106,-139.42623)"
     id="layer1-0"
     style="fill:#333333">
    <path
       sodipodi:type="inkscape:offset"
       inkscape:radius="1.2250761"
       inkscape:original="M 62.5 942.875 C 36.542617 942.875 15.5 963.91762 15.5 989.875 C 15.5 1015.8323 36.542617 1036.875 62.5 1036.875 C 88.45738 1036.875 109.5 1015.8323 109.5 989.875 C 109.5 963.91762 88.45738 942.875 62.5 942.875 z M 62.5 946.78125 C 82.234898 946.78125 98.866915 960.05319 103.96875 978.15625 C 99.574534 987.21979 93.333357 995.37439 85.71875 1001.9688 C 82.060783 1005.1366 78.067851 1007.9491 73.65625 1009.9375 C 69.244648 1011.9259 64.393565 1013.0582 59.5625 1012.7812 C 55.932825 1012.573 52.334894 1011.5748 49.15625 1009.8125 C 57.580234 1005.2478 65.184371 999.16259 71.40625 991.875 C 75.490161 987.09156 79.061716 981.63732 80.4375 975.5 C 81.125393 972.43133 81.236654 969.23466 80.59375 966.15625 C 79.950847 963.07785 78.528979 960.13509 76.375 957.84375 C 74.270692 955.60524 71.524159 954.03584 68.5625 953.21875 C 65.600842 952.40168 62.428497 952.32268 59.40625 952.875 C 53.361755 953.97963 47.984603 957.48239 43.65625 961.84375 C 36.026896 969.53129 31.291077 980.39136 32.15625 991.1875 C 32.588834 996.58558 34.4002 1001.9032 37.5 1006.3438 C 38.19192 1007.3348 38.967075 1008.2617 39.78125 1009.1562 C 35.265502 1010.7367 30.585859 1011.8664 25.84375 1012.5 C 21.772326 1005.9212 19.40625 998.18032 19.40625 989.875 C 19.40625 966.08073 38.705731 946.78125 62.5 946.78125 z M 62.78125 955.46875 C 65.809837 955.47275 68.864729 956.39316 71.28125 958.21875 C 73.458416 959.86352 75.054237 962.21045 75.96875 964.78125 C 76.883264 967.35203 77.124518 970.13304 76.8125 972.84375 C 76.188459 978.26517 73.460487 983.25057 70.15625 987.59375 C 64.305678 995.28388 56.523891 1001.4414 47.875 1005.75 C 46.989717 1006.191 46.090717 1006.597 45.1875 1007 C 43.305569 1005.3531 41.698276 1003.4269 40.46875 1001.25 C 37.899614 996.70121 37.032799 991.29408 37.53125 986.09375 C 38.0297 980.89343 39.821405 975.86037 42.21875 971.21875 C 44.998363 965.837 48.789819 960.73786 54.09375 957.8125 C 56.745715 956.34981 59.752661 955.46465 62.78125 955.46875 z M 105.1875 984.09375 C 105.43992 985.98041 105.59375 987.91926 105.59375 989.875 C 105.59375 1013.6693 86.29427 1032.9375 62.5 1032.9375 C 49.136896 1032.9375 37.183676 1026.8616 29.28125 1017.3125 C 34.158851 1016.2048 38.927363 1014.6193 43.5 1012.5938 C 45.499648 1014.1167 47.715005 1015.35 50.0625 1016.25 C 56.822827 1018.8418 64.50201 1018.4622 71.34375 1016.0938 C 78.185483 1013.7252 84.242253 1009.4755 89.53125 1004.5312 C 95.831813 998.64143 101.1434 991.71154 105.1875 984.09375 z "
       style="fill:#333333;fill-opacity:1;stroke:none"
       id="path2988"
       d="m 62.5,941.65625 c -26.619463,0 -48.21875,21.59929 -48.21875,48.21875 0,26.6194 21.599284,48.2188 48.21875,48.2188 26.619463,0 48.21875,-21.5994 48.21875,-48.2188 0,-26.61946 -21.59929,-48.21875 -48.21875,-48.21875 z M 62.5,948 c 19.021624,0 35.022539,12.70843 40.125,30.0625 -4.308653,8.73234 -10.358511,16.59463 -17.71875,22.9687 -3.595722,3.1139 -7.480475,5.8569 -11.75,7.7813 -4.263721,1.9217 -8.937458,3.0134 -13.53125,2.75 -2.687368,-0.1541 -5.280516,-0.9192 -7.75,-1.9687 7.692124,-4.4787 14.683662,-10.16157 20.46875,-16.93755 4.153488,-4.86493 7.840365,-10.44727 9.28125,-16.875 0.721447,-3.21835 0.839632,-6.60277 0.15625,-9.875 -0.684858,-3.27929 -2.171771,-6.42955 -4.5,-8.90625 -2.272951,-2.41791 -5.244087,-4.09634 -8.40625,-4.96875 -3.158343,-0.87133 -6.495795,-0.95829 -9.6875,-0.375 -6.36863,1.16387 -11.95157,4.82385 -16.40625,9.3125 -7.857155,7.91708 -12.742584,19.09632 -11.84375,30.3125 0.449219,5.60566 2.328166,11.11665 5.5625,15.74995 0.366258,0.5246 0.788781,0.981 1.1875,1.4688 -3.654869,1.1771 -7.391172,2.0704 -11.1875,2.625 -3.699241,-6.2411 -5.875,-13.46707 -5.875,-21.25 C 20.625,966.74317 39.368169,948 62.5,948 z m 0.28125,8.6875 c 2.781469,0.004 5.571682,0.85436 7.75,2.5 1.959672,1.48046 3.438658,3.63138 4.28125,6 0.843811,2.37203 1.07418,4.98637 0.78125,7.53125 -0.587418,5.10325 -3.178807,9.88276 -6.40625,14.125 -5.724423,7.52432 -13.349314,13.58085 -21.84375,17.81245 -0.607169,0.3025 -1.245414,0.59 -1.875,0.875 -1.543994,-1.4452 -2.903523,-3.0443 -3.9375,-4.875 -2.422725,-4.28951 -3.259135,-9.45169 -2.78125,-14.43745 0.479009,-4.9975 2.216646,-9.89557 4.5625,-14.4375 2.715962,-5.25851 6.382048,-10.15241 11.375,-12.90625 2.492067,-1.3745 5.304959,-2.19128 8.09375,-2.1875 z M 104.25,988.125 c 0.0273,0.5861 0.125,1.16157 0.125,1.75 0,23.1319 -18.742094,41.8438 -41.875,41.8438 -12.267383,0 -23.187568,-5.3832 -30.84375,-13.7813 4.004019,-1.0272 7.926226,-2.3273 11.71875,-3.9687 1.933198,1.3913 4.025379,2.5846 6.25,3.4374 7.087206,2.7172 15.053718,2.2917 22.125,-0.1562 7.058592,-2.4437 13.250984,-6.7887 18.625,-11.8125 5.425036,-5.0713 10.06612,-10.94086 13.875,-17.3125 z"
       transform="matrix(1.1139709,0,0,1.1139709,-7.1231814,-112.82981)" />
  </g>
</svg>
