<?xml version="1.0" encoding="UTF-8"?>
<!-- Created with Inkscape (http://www.inkscape.org/) -->
<svg width="1074" height="328" version="1.1" viewBox="0 0 1006.9 307.48" xml:space="preserve" xmlns="http://www.w3.org/2000/svg" xmlns:cc="http://creativecommons.org/ns#" xmlns:dc="http://purl.org/dc/elements/1.1/" xmlns:rdf="http://www.w3.org/1999/02/22-rdf-syntax-ns#"><metadata><rdf:RDF><cc:Work rdf:about=""><dc:format>image/svg+xml</dc:format><dc:type rdf:resource="http://purl.org/dc/dcmitype/StillImage"/></cc:Work></rdf:RDF></metadata><g transform="translate(141.12 -2591.6)"><path d="m50.241 2655.5c-0.95474 1e-4 -1.7286 0.7741-1.7286 1.7289v117.41c0 6.2256 1.7064 11.295 5.17 14.759 3.4637 3.4638 8.5335 5.1704 14.759 5.1704h7.0989c0.95461-2e-4 1.7284-0.774 1.7286-1.7286v-4.1864c-1.66e-4 -0.9545-0.77399-1.7283-1.7286-1.7285h-7.0989c-4.5088 0-7.4806-1.0299-9.3683-2.9177-1.8877-1.8878-2.9177-4.8598-2.9177-9.3686v-117.41c2.6e-5 -0.9547-0.77384-1.7287-1.7286-1.7289zm466.91 13.287c-0.95487 0-1.729 0.774-1.7289 1.7289v104.11c0 2.3348 0.23583 4.4972 0.71488 6.4792 0.31939 1.3213 0.74736 2.5622 1.2867 3.7163 0.26952 0.5767 0.56675 1.1321 0.89191 1.6641 0.3249 0.5315 0.67722 1.0402 1.0571 1.5241 0.75961 0.9676 1.6281 1.8361 2.5958 2.5958 0.96765 0.7596 2.0342 1.4098 3.1879 1.949 0.57707 0.2697 1.1758 0.5116 1.7957 0.726 1.2395 0.4288 2.5619 0.7475 3.9628 0.9591 1.4012 0.2116 2.881 0.3161 4.4373 0.3161h7.0981c0.95472 0 1.7288-0.7739 1.7289-1.7286v-4.1864c0-0.9548-0.77404-1.7289-1.7289-1.7289h-7.0981c-3.3816 0-5.9309-0.5985-7.7556-1.6746-0.30445-0.1796-0.5894-0.3723-0.85733-0.5789-0.8045-0.6204-1.46-1.3641-1.9983-2.2767-0.17971-0.3047-0.34559-0.6276-0.49752-0.9706-0.30425-0.6869-0.55379-1.457-0.74372-2.3163-0.095-0.43-0.17551-0.8815-0.23976-1.3551-0.12856-0.9477-0.19366-1.9859-0.19366-3.1137v-71.985h19.384c0.95487 1e-4 1.7289-0.774 1.7289-1.7289v-4.186c4e-5 -0.9548-0.77404-1.7289-1.7289-1.7289h-19.384v-24.48c4e-5 -0.9549-0.77404-1.729-1.7289-1.729zm182.71 0.3144c-2.2546 0.1223-4.4844 0.7435-6.4758 1.8795-3.009 1.7165-5.329 4.5544-6.3382 7.9016-0.68814 2.2822-0.71649 4.5968-0.51854 6.7447 0.21939 2.3806 0.72274 4.6957 1.3894 6.9268 0.19027 0.6368 0.40329 1.2567 0.62164 1.8714l-4.5509 0.025c-12.037 0.066-22.953 5.1508-29.204 13.803v-11.528c4e-5 -0.9547-0.77384-1.7287-1.7286-1.7289h-4.1862c-0.95473 2e-4 -1.7286 0.7742-1.7286 1.7289v96.102c1.6e-4 0.9545 0.77399 1.7283 1.7286 1.7285h4.1862c0.95459-2e-4 1.7284-0.774 1.7286-1.7285v-61.884c0-16.901 12.108-28.556 29.243-28.849l7.3459-0.1262 38.048 91.59-6.7353 16.357h-2e-3c-2.7524 6.7231-4.7989 10.535-6.9875 12.511-2.1887 1.9764-4.6698 2.5231-9.3409 2.5231h-8.0082c-0.95487 0-1.729 0.7741-1.7289 1.729v4.186c0 0.9548 0.77406 1.7289 1.7289 1.7289h8.0082c6.0089 0 10.496-1.029 14.105-4.1808 3.6092-3.1516 6.2108-8.1022 9.3353-15.73v0l47.322-115.3c0.46678-1.1376-0.36974-2.3852-1.5994-2.3852h-4.4596c-0.70087 1e-4 -1.3323 0.4234-1.5987 1.0717l-26.937 65.523s-2e-3 0-2e-3 0.01c-3.0177 7.428-6.0355 14.856-9.0532 22.283-3.0397-7.4338-6.1159-14.864-9.1303-22.283-2e-3 0-3e-3 -0.01-5e-3 -0.012l-24.794-59.705c0.94904 0 1.9444-0.036 2.9769-0.1744 2.2766-0.3045 4.3473-1.1888 6.1717-2.2905 1.9153-1.1566 3.692-2.6374 5.0891-4.5251 1.9492-2.6338 2.9877-5.8496 3.0756-9.0745 0.074-2.7193-0.50239-5.4568-1.7639-7.9127-0.99239-1.932-2.3891-3.6241-4.0215-4.9928-2.0592-1.7266-4.5431-2.961-7.1998-3.5118-1.3246-0.2746-2.6674-0.3694-4.0069-0.2968zm1.1086 7.0929c1.1303 0.3768 3.0106 0.659 3.9812 1.3501 1.1854 0.8418 2.1909 2.0661 2.8942 3.4439 0.86818 1.7009 1.2755 3.6672 1.1181 5.5327-0.15726 1.8643-0.87973 3.6622-2.0644 5.0287-1.6412 1.893-4.376 3.024-6.8627 2.8287-0.045 0-0.0902-0.01-0.13532-0.01h-0.0366c-5e-3 -1e-4 -0.01-1e-4 -0.0146 0l-2.9295 0.025-0.64606-1.5183v0.3497c7e-5 -0.2299-0.0457-0.4575-0.13463-0.6695-0.77567-1.8461-1.3453-3.7687-1.7245-5.7518-0.40677-2.1273-0.64655-4.0958-0.22044-5.6453 0.41819-1.5208 1.5946-2.9567 3.081-3.8613 1.1709-0.7125 2.4932-1.1049 3.6943-1.1049h4e-5zm-711.48 17.346c-12.905 0-23.994 5.4638-31.749 14.615-7.754 9.1508-12.206 21.938-12.206 36.62 0 14.682 4.4523 27.471 12.206 36.62 7.754 9.1509 18.844 14.614 31.749 14.614 19.481 0 36.887-12.447 41.54-31.533 0.26534-1.0887-0.55918-2.1383-1.6797-2.1383h-4.3684c-0.78553 1e-4 -1.4723 0.5297-1.6719 1.2894-3.9736 15.117-18.245 24.739-33.82 24.739-10.664 0-19.636-4.4299-26.058-12.078-6.1287-7.3005-9.8596-17.606-10.19-29.784h77.745c0.95487 0 1.7289-0.7741 1.7289-1.729v-2.1836c0-13.785-4.3232-26.028-11.919-34.857-7.596-8.8285-18.498-14.196-31.308-14.196zm130.79 0c-12.906 0-23.994 5.4638-31.749 14.615-7.754 9.1508-12.206 21.938-12.206 36.62 0 14.682 4.4523 27.471 12.206 36.62 7.7538 9.1509 18.844 14.614 31.749 14.614 19.481 0 36.887-12.447 41.54-31.533 0.26533-1.0887-0.55918-2.1383-1.6797-2.1383h-4.3684c-0.78553 1e-4 -1.4723 0.5297-1.6719 1.2894-3.9736 15.117-18.245 24.739-33.82 24.739-10.664 0-19.636-4.4299-26.058-12.078-6.1287-7.3005-9.8596-17.606-10.19-29.784h77.745c0.95487 0 1.729-0.7741 1.7289-1.729v-2.1836c0-13.785-4.3231-26.028-11.919-34.857s-18.499-14.196-31.308-14.196zm153.82 0c-13.836 0-25.717 6.9444-31.436 18.417-4.7385-11.082-14.974-18.01-27.48-18.4h-0.0502-1.1978c-21.001 0.5297-36.026 15.41-36.026 36.659v62.611c1.6e-4 0.9546 0.77398 1.7284 1.7286 1.7285h4.1862c0.95459-1e-4 1.7284-0.7739 1.7286-1.7285v-62.611c0-8.7441 2.9734-15.879 8.0416-20.91 5.0632-5.0264 12.267-7.9874 20.955-8.115 7.4026 0.1176 13.265 2.7321 17.399 7.5675 4.1384 4.8407 6.571 12.034 6.571 21.459v62.611c1.6e-4 0.9546 0.77398 1.7284 1.7286 1.7286h4.1862c0.95459-2e-4 1.7284-0.774 1.7286-1.7286v-62.611c0-9.4418 3.1301-16.625 8.1362-21.514s11.955-7.5163 19.803-7.5163c7.7999 0 13.932 2.5833 18.227 7.4263 4.2955 4.843 6.7994 12.08 6.7994 21.605v62.611c1.7e-4 0.9547 0.77419 1.7286 1.7289 1.7285h4.1866c0.95459-1e-4 1.7284-0.7739 1.7286-1.7285v-62.611c0-11.103-3.0779-20.286-8.7737-26.708-5.6959-6.4214-13.982-9.9665-23.896-9.9665zm90.523 0c-12.905 0-23.994 5.4638-31.749 14.615-7.754 9.1508-12.206 21.938-12.206 36.62 0 14.683 4.4525 27.471 12.206 36.62 7.754 9.1509 18.844 14.614 31.749 14.614 19.481 0 36.887-12.447 41.54-31.533 0.26532-1.0886-0.55899-2.1381-1.6794-2.1383h-4.3681c-0.78564-1e-4 -1.4726 0.5296-1.6723 1.2894-3.9736 15.117-18.245 24.739-33.82 24.739-10.664 0-19.636-4.4299-26.058-12.078-6.1287-7.3005-9.86-17.606-10.19-29.784h77.745c0.95486 0 1.7289-0.7741 1.7289-1.729v-2.1836c0-13.785-4.3232-26.028-11.919-34.857-7.596-8.8285-18.498-14.196-31.308-14.196zm93.979 0c-21.62 0-37.22 15.024-37.22 36.674v62.611c1.6e-4 0.9547 0.77419 1.7286 1.7289 1.7286h4.1864c0.95472 0 1.7287-0.7739 1.7289-1.7286v-62.611c0-8.8368 3.0355-16.03 8.2031-21.07 5.1674-5.0397 12.519-7.9608 21.374-7.9608h1.8205c8.8538 0 16.206 2.9211 21.374 7.9608 5.1676 5.0396 8.2033 12.233 8.2033 21.07v62.611c1.7e-4 0.9546 0.77399 1.7284 1.7286 1.7286h4.1862c0.95459-2e-4 1.7284-0.774 1.7286-1.7286v-62.611c0-21.65-15.6-36.674-37.22-36.674zm131.78 0c-20.512 0-37.039 13.785-37.039 31.942 1.6e-4 0.9547 0.77417 1.7285 1.7289 1.7285h4.1862c0.9546-1e-4 1.7284-0.7739 1.7286-1.7285 0-13.669 12.762-24.298 29.395-24.298 16.45 0 29.03 10.518 29.03 24.298v2.5481c0 1.5863-0.49324 2.7054-1.5783 3.8089-1.0851 1.1034-2.8415 2.1237-5.2186 2.9983-4.7542 1.7493-11.883 2.9037-20.459 4.038-14.631 1.9266-24.819 4.74-31.56 9.3153-6.7423 4.5755-9.8017 11.11-9.8017 19.336 0 9.6448 4.2869 16.954 10.722 21.635 6.4354 4.6815 14.922 6.8488 23.587 6.8488 14.748 0 27.334-6.3387 34.309-16.629v13.445c1.7e-4 0.9546 0.77399 1.7284 1.7286 1.7285h4.1866c0.95459-1e-4 1.7284-0.7739 1.7286-1.7285v-67.344c0-18.316-16.347-31.942-36.674-31.942zm-600.89 7.6441c19.57 0 34.324 15.357 35.396 37.676h-71.437c2.1312-22.598 16.381-37.676 36.041-37.676zm130.79 0c19.57 0 34.324 15.357 35.396 37.676h-71.437c2.1312-22.598 16.381-37.676 36.041-37.676zm244.35 0c19.57 0 34.324 15.357 35.396 37.676h-71.437c2.1312-22.598 16.381-37.676 36.041-37.676zm254.79 38.772v13.009c0 11.946-3.9398 20.701-10.14 26.556-6.1998 5.8561-14.753 8.8447-24.168 8.8447-7.4472 0-14.194-1.8799-18.975-5.3871-4.7816-3.5072-7.6889-8.5385-7.6889-15.453 0-6.1323 1.9868-10.125 7.2413-13.466 5.2543-3.3407 13.983-5.7668 26.941-7.573 13.361-1.8536 21.157-3.1112 26.791-6.5308zm-569.19-84.457c-0.95474 2e-4 -1.7286 0.7742-1.7286 1.7289v117.41c0 6.2256 1.7064 11.296 5.17 14.759 3.4637 3.4639 7.2787-3.5027 5.3908-5.3906s-2.9177-4.8598-2.9177-9.3687v-117.41c2.6e-5 -0.9547-0.77384-1.7287-1.7286-1.7289zm-60.746 38.041c-12.905 0-23.994 5.4638-31.749 14.615-7.754 9.1508-12.206 21.938-12.206 36.62 0 14.683 4.4523 27.471 12.206 36.62 7.754 9.1508 18.844 14.614 31.749 14.614 19.481 0 36.887-12.446 41.54-31.532 0.26534-1.0887-0.55918-2.1383-1.6797-2.1383h-4.3684c-0.78553 0-1.4723 0.5297-1.6719 1.2894-3.9736 15.117-18.245 24.739-33.82 24.739-10.664 0-19.636-4.4299-26.058-12.078-6.1287-7.3006-9.8596-17.606-10.19-29.784h77.745c0.95487 0 1.7289-0.774 1.7289-1.7289v-2.1837c0-13.785-4.3232-26.028-11.919-34.857-7.596-8.8286-18.498-14.196-31.308-14.196zm0 7.6442c19.57 0 34.324 15.357 35.396 37.676h-71.437c2.1312-22.598 16.381-37.676 36.041-37.676z" stroke-linecap="round" stroke-linejoin="round" stroke-width=".9375" style="paint-order:stroke fill markers;white-space:pre"/></g></svg>
