<?xml version="1.0" encoding="UTF-8" standalone="no"?>
<svg
   xmlns:dc="http://purl.org/dc/elements/1.1/"
   xmlns:cc="http://creativecommons.org/ns#"
   xmlns:rdf="http://www.w3.org/1999/02/22-rdf-syntax-ns#"
   xmlns:svg="http://www.w3.org/2000/svg"
   xmlns="http://www.w3.org/2000/svg"
   xmlns:sodipodi="http://sodipodi.sourceforge.net/DTD/sodipodi-0.dtd"
   xmlns:inkscape="http://www.inkscape.org/namespaces/inkscape"
   width="800"
   height="800"
   id="svg2"
   version="1.1"
   inkscape:version="1.0.2 (e86c870879, 2021-01-15)"
   sodipodi:docname="logomark.svg"
   inkscape:export-filename="/home/cassidyjames/Projects/elementary/brand/logomark-black.png"
   inkscape:export-xdpi="96"
   inkscape:export-ydpi="96">
  <defs
     id="defs4">
    <inkscape:path-effect
       is_visible="true"
       id="path-effect2991"
       effect="spiro" />
    <inkscape:path-effect
       effect="spiro"
       id="path-effect3177"
       is_visible="true" />
    <mask
       maskUnits="userSpaceOnUse"
       id="mask-powermask-path-effect931">
      <path
         id="mask-powermask-path-effect931_box"
         style="fill:#ffffff;fill-opacity:1"
         d="m 140.49252,65.09317 h 27 v 27 h -27 z" />
      <path
         style="fill:#000000;fill-opacity:1;stroke:none;stroke-width:0.250001;stroke-linejoin:round;stroke-miterlimit:4;stroke-dasharray:none;stroke-dashoffset:0;stroke-opacity:1"
         d="m 153.99252,68.593168 c -5.52285,0 -10,4.477155 -10,10.000001 0,5.522847 4.47715,10.000002 10,10.000002 5.52285,0 10,-4.477155 10,-10.000002 0,-5.522846 -4.47715,-10.000001 -10,-10.000001 z m 0,0.833335 c 4.19891,0 7.73846,2.823284 8.82396,6.675001 -0.93494,1.92841 -2.26529,3.664661 -3.88542,5.067707 -0.77829,0.674007 -1.62803,1.274855 -2.56667,1.697919 -0.93864,0.42306 -1.97107,0.663112 -2.99896,0.604165 -0.77226,-0.04429 -1.53514,-0.259411 -2.21145,-0.634373 1.79233,-0.971206 3.40953,-2.266117 4.73333,-3.816667 0.86892,-1.017752 1.62916,-2.174397 1.92188,-3.480211 0.14636,-0.652907 0.17116,-1.336688 0.0344,-1.991666 -0.1368,-0.654979 -0.43963,-1.279147 -0.89792,-1.766666 -0.44773,-0.476279 -1.03549,-0.813654 -1.66563,-0.987501 -0.63014,-0.173848 -1.30071,-0.187307 -1.94375,-0.06979 -1.28606,0.235027 -2.43428,0.982467 -3.3552,1.910416 -1.62327,1.635647 -2.62679,3.943575 -2.44271,6.240627 0.092,1.148527 0.47692,2.277099 1.13645,3.221876 0.14722,0.210886 0.30907,0.41175 0.4823,0.602081 -0.9608,0.336259 -1.95563,0.575614 -2.96459,0.710419 -0.86626,-1.399757 -1.36666,-3.049579 -1.36666,-4.816668 0,-5.062612 4.10405,-9.166667 9.16666,-9.166667 z m 0.0583,1.852083 c 0.64438,7.94e-4 1.29314,0.19595 1.8073,0.584375 0.46322,0.349951 0.80646,0.847814 1.00104,1.394793 0.19457,0.546976 0.24451,1.14096 0.17812,1.717707 -0.13278,1.153493 -0.71468,2.211337 -1.41771,3.135418 -1.24481,1.636199 -2.8994,2.945778 -4.73958,3.862501 -0.18836,0.09383 -0.3797,0.18302 -0.57188,0.268748 -0.40041,-0.350398 -0.74361,-0.76599 -1.00521,-1.229167 -0.54662,-0.967824 -0.72688,-2.117505 -0.62083,-3.223958 0.10605,-1.106451 0.48576,-2.172838 0.99583,-3.160416 0.59141,-1.145054 1.39755,-2.229665 2.52604,-2.852084 0.56425,-0.311211 1.2025,-0.49879 1.84688,-0.497917 z m 9.02605,6.087499 c 0.0537,0.401418 0.0823,0.810972 0.0823,1.227084 0,5.062612 -4.10406,9.16667 -9.16668,9.16667 -2.84321,0 -5.38425,-1.294334 -7.06562,-3.326043 1.03779,-0.235704 2.0521,-0.574262 3.025,-1.00521 0.42546,0.324017 0.89533,0.589767 1.39479,0.781251 1.43837,0.551434 3.07139,0.471646 4.52709,-0.03229 1.45569,-0.503936 2.74656,-1.408448 3.87187,-2.460416 1.34056,-1.25317 2.47081,-2.730238 3.33126,-4.351044 z"
         id="path929" />
    </mask>
    <inkscape:path-effect
       effect="powermask"
       id="path-effect931"
       is_visible="true"
       lpeversion="1"
       uri="#mask-powermask-path-effect931"
       invert="false"
       hide_mask="false"
       background="true"
       background_color="#ffffffff" />
    <filter
       id="mask-powermask-path-effect931_inverse"
       inkscape:label="filtermask-powermask-path-effect931"
       style="color-interpolation-filters:sRGB"
       height="100"
       width="100"
       x="-50"
       y="-50">
      <feColorMatrix
         id="mask-powermask-path-effect931_primitive1"
         values="1"
         type="saturate"
         result="fbSourceGraphic" />
      <feColorMatrix
         id="mask-powermask-path-effect931_primitive2"
         values="-1 0 0 0 1 0 -1 0 0 1 0 0 -1 0 1 0 0 0 1 0 "
         in="fbSourceGraphic" />
    </filter>
  </defs>
  <sodipodi:namedview
     id="base"
     pagecolor="#ffffff"
     bordercolor="#666666"
     borderopacity="1.0"
     inkscape:pageopacity="0.0"
     inkscape:pageshadow="2"
     inkscape:zoom="0.97625"
     inkscape:cx="485.53137"
     inkscape:cy="393.85403"
     inkscape:document-units="px"
     inkscape:current-layer="layer1"
     showgrid="false"
     showguides="true"
     inkscape:guide-bbox="true"
     inkscape:window-width="1920"
     inkscape:window-height="1019"
     inkscape:window-x="0"
     inkscape:window-y="30"
     inkscape:window-maximized="1"
     inkscape:document-rotation="0">
    <sodipodi:guide
       orientation="1,0"
       position="100,100"
       id="guide2985" />
    <sodipodi:guide
       orientation="1,0"
       position="700,555.18566"
       id="guide2987" />
    <sodipodi:guide
       orientation="0,1"
       position="-102.43278,100"
       id="guide2989" />
    <sodipodi:guide
       orientation="0,1"
       position="-169.01408,700"
       id="guide2991" />
  </sodipodi:namedview>
  <metadata
     id="metadata7">
    <rdf:RDF>
      <cc:Work
         rdf:about="">
        <dc:format>image/svg+xml</dc:format>
        <dc:type
           rdf:resource="http://purl.org/dc/dcmitype/StillImage" />
        <dc:title />
      </cc:Work>
    </rdf:RDF>
  </metadata>
  <g
     inkscape:label="Layer 1"
     inkscape:groupmode="layer"
     id="layer1"
     transform="translate(0,-252.36218)">
    <path
       style="fill:#000000;fill-opacity:1;stroke-width:0.192855"
       id="path909"
       mask="url(#mask-powermask-path-effect931)"
       transform="matrix(24,0,0,24,-3295.8206,-1233.8739)"
       sodipodi:type="arc"
       sodipodi:ry="12.5"
       sodipodi:rx="12.5"
       sodipodi:cy="78.59317"
       sodipodi:cx="153.99252"
       inkscape:path-effect="#path-effect931"
       d="m 166.49252,78.59317 a 12.5,12.5 0 0 1 -12.5,12.5 12.5,12.5 0 0 1 -12.5,-12.5 12.5,12.5 0 0 1 12.5,-12.5 12.5,12.5 0 0 1 12.5,12.5 z" />
  </g>
</svg>
