<?xml version="1.0" encoding="UTF-8" standalone="no"?>
<svg
   xmlns:dc="http://purl.org/dc/elements/1.1/"
   xmlns:cc="http://creativecommons.org/ns#"
   xmlns:rdf="http://www.w3.org/1999/02/22-rdf-syntax-ns#"
   xmlns:svg="http://www.w3.org/2000/svg"
   xmlns="http://www.w3.org/2000/svg"
   xmlns:sodipodi="http://sodipodi.sourceforge.net/DTD/sodipodi-0.dtd"
   xmlns:inkscape="http://www.inkscape.org/namespaces/inkscape"
   version="1.1"
   id="Layer_1"
   x="0px"
   y="0px"
   width="792px"
   height="792px"
   viewBox="0 0 792 792"
   style="enable-background:new 0 0 792 792;"
   xml:space="preserve"
   inkscape:version="0.92.3 (2405546, 2018-03-11)"
   sodipodi:docname="community-color.svg"
   inkscape:export-filename="/home/cassidyjames/Projects/elementary/brand/community-color.png"
   inkscape:export-xdpi="145.45"
   inkscape:export-ydpi="145.45"><metadata
     id="metadata24"><rdf:RDF><cc:Work
         rdf:about=""><dc:format>image/svg+xml</dc:format><dc:type
           rdf:resource="http://purl.org/dc/dcmitype/StillImage" /><dc:title /></cc:Work></rdf:RDF></metadata><defs
     id="defs22"><filter
       inkscape:collect="always"
       style="color-interpolation-filters:sRGB"
       id="filter4288"
       x="-0.012"
       width="1.024"
       y="-0.012"
       height="1.024"><feGaussianBlur
         inkscape:collect="always"
         stdDeviation="1.3391406"
         id="feGaussianBlur4290" /></filter><filter
       inkscape:collect="always"
       style="color-interpolation-filters:sRGB"
       id="filter4298"
       x="-0.059999999"
       width="1.12"
       y="-0.059999999"
       height="1.12"><feGaussianBlur
         inkscape:collect="always"
         stdDeviation="6.695703"
         id="feGaussianBlur4300" /></filter></defs><sodipodi:namedview
     pagecolor="#ffffff"
     bordercolor="#666666"
     borderopacity="1"
     objecttolerance="10"
     gridtolerance="10"
     guidetolerance="10"
     inkscape:pageopacity="0"
     inkscape:pageshadow="2"
     inkscape:window-width="3200"
     inkscape:window-height="1674"
     id="namedview20"
     showgrid="false"
     inkscape:zoom="2"
     inkscape:cx="436.78162"
     inkscape:cy="476.35011"
     inkscape:window-x="0"
     inkscape:window-y="60"
     inkscape:window-maximized="1"
     inkscape:current-layer="Layer_1" /><rect
     style="fill:#9bdb4d;fill-opacity:1"
     width="792"
     height="792"
     id="rect14" /><path
     style="fill:#c6262e;fill-opacity:1"
     d="M538.438,484.672c0,0,42.408-35.097,42.408-73.006C580.846,406,578.273,401,568,401  c-25.604,0-35.073,33.165-35.073,33.165s-17.679-20.241-29.76-20.241c-5.586,0-8.167,6.41-8.167,16.076  C495,468,533.708,484.672,538.438,484.672z"
     id="path18" /><path
     inkscape:connector-curvature="0"
     style="fill:#000000;color:#000000;clip-rule:nonzero;display:inline;overflow:visible;visibility:visible;opacity:0.3;isolation:auto;mix-blend-mode:normal;color-interpolation:sRGB;color-interpolation-filters:linearRGB;solid-color:#000000;solid-opacity:1;fill-opacity:1;fill-rule:nonzero;stroke-width:1;stroke-linecap:butt;stroke-linejoin:miter;stroke-miterlimit:4;stroke-dasharray:none;stroke-dashoffset:0;stroke-opacity:1;filter:url(#filter4288);filter-blend-mode:normal;filter-gaussianBlur-deviation:0;color-rendering:auto;image-rendering:auto;shape-rendering:auto;text-rendering:auto;enable-background:accumulate"
     d="M 396,98 C 230.314,98 96,232.314 96,398 96,563.686 230.314,698 396,698 561.686,698 696,563.686 696,398 696,232.314 561.686,98 396,98 Z M 178.608,543.98 c -3.574,0.433 -7.131,0.716 -10.646,0.883 -1.199,0.058 -2.392,0.092 -3.58,0.111 C 137.368,502.49 121.711,452.075 121.711,398 121.711,246.514 244.514,123.71 396,123.71 c 147.212,0 267.322,115.974 273.985,261.54 -2.539,7.074 -5.331,14.06 -8.388,20.907 -6.383,14.244 -13.862,27.975 -22.867,40.398 -4.485,6.22 -9.389,12.067 -14.689,17.415 -2.661,2.66 -5.424,5.191 -8.288,7.567 -2.871,2.365 -5.861,4.543 -8.94,6.544 -3.075,2.01 -6.269,3.79 -9.552,5.331 -3.284,1.535 -6.639,2.901 -10.089,3.929 -3.444,1.039 -6.953,1.834 -10.506,2.383 -1.778,0.21 -3.606,0.475 -5.259,0.557 l -1.269,0.099 c -0.386,0.045 -0.973,0.033 -1.449,0.053 l -2.801,0.067 c -1.542,-10e-4 -3.079,-0.042 -4.612,-0.107 8.004,-8.907 15.317,-18.491 21.667,-28.854 4.292,-7.067 8.111,-14.521 11.065,-22.566 1.47,-4.025 2.715,-8.206 3.566,-12.618 0.841,-4.41 1.325,-9.06 0.933,-14.045 -0.2,-2.487 -0.635,-5.065 -1.468,-7.68 -0.813,-2.604 -2.045,-5.251 -3.781,-7.683 -1.712,-2.437 -3.963,-4.598 -6.432,-6.253 -2.479,-1.641 -5.153,-2.82 -7.766,-3.544 -2.618,-0.74 -5.187,-1.111 -7.656,-1.252 -0.624,-0.046 -1.229,-0.054 -1.838,-0.064 l -0.456,-0.007 -0.569,0 -0.731,0.015 -0.73,0.015 -0.895,0.042 c -0.608,0.037 -1.27,0.057 -1.831,0.118 -4.627,0.374 -9.417,1.385 -14.001,3.342 -4.577,1.941 -8.896,4.844 -12.38,8.44 -3.517,3.578 -6.196,7.746 -8.182,12.016 -0.23,0.499 -0.449,1 -0.662,1.503 -0.615,-0.691 -1.247,-1.374 -1.917,-2.038 -3.58,-3.546 -8.1,-6.639 -13.26,-8.416 -2.563,-0.898 -5.248,-1.461 -7.912,-1.701 -1.338,-0.115 -2.646,-0.173 -3.985,-0.129 l -0.657,0.036 -0.719,0.054 c -0.407,0.049 -0.814,0.093 -1.222,0.156 -0.816,0.132 -1.633,0.299 -2.44,0.527 -3.246,0.881 -6.258,2.616 -8.608,4.722 -2.376,2.106 -4.135,4.526 -5.489,6.953 -2.681,4.89 -3.868,9.843 -4.445,14.638 -1.06,9.608 0.38,18.813 3.228,27.449 2.881,8.627 7.343,16.674 13.077,23.694 5.727,7.026 12.74,12.984 20.485,17.557 2.787,1.653 5.666,3.12 8.604,4.423 -18.147,14.469 -38.498,26.231 -60.046,34.787 -13.907,5.468 -28.289,9.695 -42.941,12.495 -14.654,2.766 -29.56,4.217 -44.446,4.327 -7.546,0.042 -14.762,-0.208 -22.005,-0.993 -3.611,-0.373 -7.198,-0.868 -10.751,-1.495 -3.56,-0.597 -7.075,-1.361 -10.559,-2.211 -12.867,-3.164 -25.135,-8.094 -36.331,-14.66 14.045,-7.601 27.681,-15.9 40.959,-24.737 26.563,-17.81 51.717,-37.892 74.205,-61.027 11.234,-11.563 21.795,-23.889 31.304,-37.128 4.762,-6.611 9.237,-13.467 13.392,-20.55 4.133,-7.096 7.911,-14.442 11.267,-22.021 6.692,-15.154 11.566,-31.377 13.626,-48.181 0.513,-4.197 0.867,-8.422 1.007,-12.663 0.023,-1.061 0.064,-2.121 0.071,-3.182 l -0.004,-3.44 -0.102,-2.922 -0.057,-1.461 -0.033,-0.744 -0.066,-0.846 -0.277,-3.38 -0.15,-1.682 -0.211,-1.609 -0.436,-3.216 c -0.148,-1.07 -0.383,-2.134 -0.572,-3.201 -0.748,-4.269 -1.881,-8.48 -3.134,-12.644 -2.621,-8.306 -6.385,-16.27 -11.03,-23.648 l -1.823,-2.718 -0.917,-1.353 -0.979,-1.312 -1.962,-2.613 -2.086,-2.516 -1.047,-1.252 -1.104,-1.203 -2.211,-2.399 -2.319,-2.292 -1.165,-1.139 -1.214,-1.085 c -3.178,-2.963 -6.668,-5.553 -10.179,-8.07 -1.812,-1.181 -3.573,-2.436 -5.453,-3.499 -0.932,-0.545 -1.849,-1.113 -2.793,-1.634 l -2.857,-1.511 c -7.658,-3.947 -15.79,-6.877 -24.109,-8.856 -2.094,-0.424 -4.169,-0.958 -6.283,-1.264 l -3.16,-0.52 -3.177,-0.379 c -2.114,-0.305 -4.244,-0.376 -6.368,-0.562 -1.063,-0.058 -2.127,-0.072 -3.191,-0.108 l -1.596,-0.045 -0.399,-0.011 -0.555,-0.001 -0.731,0.006 -2.923,0.022 -3.283,0.143 c -1.119,0.04 -2.176,0.127 -3.223,0.22 -1.053,0.099 -2.112,0.159 -3.16,0.292 -4.208,0.449 -8.367,1.173 -12.5,1.998 -16.51,3.489 -32.058,10.132 -46.314,18.543 -14.309,8.394 -27.279,18.724 -39.126,30.123 -11.812,11.448 -22.411,24.099 -31.72,37.683 -9.297,13.591 -17.306,28.138 -23.617,43.55 -6.341,15.39 -10.994,31.667 -13.239,48.627 -0.558,4.237 -0.939,8.52 -1.149,12.835 -0.125,2.154 -0.164,4.323 -0.197,6.493 l -0.009,0.944 0.003,0.731 0.007,1.462 0.013,1.461 0.007,0.732 0.022,0.805 c 0.105,4.353 0.293,8.438 0.611,12.622 0.318,4.166 0.728,8.333 1.286,12.492 1.1,8.316 2.728,16.598 4.833,24.788 2.162,8.18 4.846,16.255 8.112,24.133 3.278,7.871 7.153,15.528 11.6,22.871 4.473,7.327 9.556,14.306 15.167,20.846 1.475,1.702 2.985,3.374 4.529,5.016 -0.545,0.214 -1.088,0.435 -1.634,0.646 -14.053,5.426 -28.386,9.989 -42.793,13.263 -7.198,1.628 -14.415,2.928 -21.566,3.764 z m 359.83,-57.308 c -1.791,0 -8.459,-2.397 -16.05,-7.434 -5.417,-3.418 -10.262,-7.648 -14.299,-12.56 C 500.753,458.104 495,446.642 495,432 c 0,-9.666 2.581,-16.076 8.167,-16.076 1.226,0 2.51,0.217 3.826,0.591 0.463,0.115 0.92,0.244 1.369,0.402 0.688,0.237 1.362,0.531 2.025,0.87 10.86,5.007 22.539,18.378 22.539,18.378 0,0 9.47,-33.165 35.074,-33.165 3.539,0 6.147,0.604 8.068,1.613 0.134,0.068 0.271,0.136 0.396,0.208 0.111,0.064 0.216,0.134 0.321,0.202 0.152,0.097 0.299,0.197 0.439,0.302 2.739,1.992 3.62,5.051 3.62,8.341 0.188,2.798 -0.125,5.978 -0.796,9.206 -0.013,0.062 -0.03,0.124 -0.043,0.187 -5.934,34.117 -41.567,63.613 -41.567,63.613 z m -265.104,27.071 c -3.75,-3.605 -7.279,-7.439 -10.564,-11.477 -2.187,-2.719 -4.271,-5.522 -6.251,-8.401 -1.972,-2.886 -3.809,-5.867 -5.569,-8.896 -3.51,-6.068 -6.553,-12.431 -9.156,-18.999 -5.222,-13.134 -8.655,-27.1 -10.48,-41.385 -0.482,-3.567 -0.836,-7.162 -1.114,-10.769 -0.278,-3.589 -0.442,-7.295 -0.531,-10.735 l -0.073,-5.558 c 0.014,-1.729 0.022,-3.457 0.109,-5.196 0.131,-3.473 0.412,-6.965 0.832,-10.462 1.566,-14.006 5.161,-28.052 10.074,-41.727 2.48,-6.833 5.27,-13.596 8.434,-20.208 3.108,-6.64 6.61,-13.113 10.338,-19.465 7.495,-12.683 16.236,-24.687 26.083,-35.679 4.944,-5.471 10.154,-10.71 15.69,-15.549 5.521,-4.857 11.302,-9.404 17.392,-13.451 12.149,-8.107 25.455,-14.422 39.399,-17.824 3.484,-0.831 7,-1.514 10.538,-1.978 0.882,-0.136 1.77,-0.201 2.655,-0.306 0.892,-0.103 1.776,-0.197 2.604,-0.242 l 2.555,-0.182 2.923,-0.091 0.73,-0.022 c 0.116,-0.002 0.135,-0.003 0.134,-0.004 0.005,0 0.012,0.001 0.042,0.002 l 0.332,0.006 1.326,0.023 c 0.884,0.021 1.771,0.016 2.653,0.054 1.76,0.143 3.534,0.162 5.283,0.403 l 2.63,0.305 2.609,0.431 c 1.748,0.246 3.453,0.691 5.178,1.044 13.663,3.335 26.38,10.293 36.079,20.171 l 0.923,0.909 0.874,0.956 1.748,1.909 1.644,1.998 0.821,0.997 0.768,1.04 1.537,2.074 1.427,2.152 0.715,1.072 0.658,1.11 1.315,2.215 c 3.336,6.013 5.88,12.44 7.664,19.09 0.835,3.344 1.602,6.708 2.04,10.148 0.112,0.859 0.27,1.707 0.348,2.572 l 0.253,2.591 0.132,1.293 0.065,1.233 0.133,2.452 0.035,0.613 0.01,0.716 0.011,1.462 0.034,2.924 -0.063,2.406 -0.12,2.662 c -0.203,3.548 -0.533,7.095 -1.028,10.628 -1.941,14.15 -6.364,28.04 -12.368,41.343 -6.059,13.295 -13.735,26.005 -22.482,38.046 -8.753,12.046 -18.592,23.42 -29.146,34.157 -10.563,10.736 -21.845,20.841 -33.641,30.349 -11.789,9.52 -24.13,18.398 -36.867,26.669 -16.179,10.473 -33.002,20.019 -50.324,28.381 z M 396,672.29 c -84.58,0 -160.208,-38.293 -210.522,-98.477 7.448,-1.406 14.742,-3.13 21.905,-5.11 15.824,-4.4 31.07,-9.941 45.922,-16.204 4.785,-2.029 9.524,-4.14 14.229,-6.311 0.441,0.309 0.879,0.622 1.323,0.927 3.544,2.438 7.186,4.728 10.923,6.834 14.917,8.508 31.17,14.312 47.677,17.636 4.13,0.824 8.275,1.535 12.432,2.054 4.154,0.549 8.317,0.943 12.477,1.195 4.159,0.284 8.315,0.368 12.462,0.393 l 3.107,-0.026 1.615,-0.024 1.462,-0.042 c 1.895,-0.043 4.012,-0.138 6.087,-0.227 16.284,-0.777 32.479,-2.908 48.352,-6.521 15.875,-3.569 31.425,-8.548 46.366,-14.922 27.189,-11.563 52.453,-27.585 74.176,-47.623 6.619,1.142 13.282,1.651 19.879,1.656 l 3.23,-0.071 c 0.528,-0.021 0.948,-0.005 1.564,-0.056 l 1.74,-0.121 c 2.368,-0.127 4.523,-0.438 6.738,-0.708 4.399,-0.674 8.752,-1.66 13.007,-2.947 4.261,-1.275 8.383,-2.943 12.379,-4.816 3.997,-1.879 7.845,-4.03 11.505,-6.418 3.666,-2.38 7.184,-4.95 10.522,-7.699 3.329,-2.759 6.501,-5.669 9.528,-8.696 6.026,-6.078 11.481,-12.606 16.407,-19.433 5.904,-8.153 11.113,-16.685 15.804,-25.447 C 651.959,566.968 536.287,672.29 396,672.29 Z"
     id="path16-3" /><path
     inkscape:connector-curvature="0"
     style="color:#000000;clip-rule:nonzero;display:inline;overflow:visible;visibility:visible;opacity:0.1;isolation:auto;mix-blend-mode:normal;color-interpolation:sRGB;color-interpolation-filters:linearRGB;solid-color:#000000;solid-opacity:1;fill:#000000;fill-opacity:1;fill-rule:nonzero;stroke-width:1;stroke-linecap:butt;stroke-linejoin:miter;stroke-miterlimit:4;stroke-dasharray:none;stroke-dashoffset:0;stroke-opacity:1;filter:url(#filter4298);color-rendering:auto;image-rendering:auto;shape-rendering:auto;text-rendering:auto;enable-background:accumulate;filter-blend-mode:normal;filter-gaussianBlur-deviation:0"
     d="M 396,98 C 230.314,98 96,232.314 96,398 96,563.686 230.314,698 396,698 561.686,698 696,563.686 696,398 696,232.314 561.686,98 396,98 Z M 178.608,543.98 c -3.574,0.433 -7.131,0.716 -10.646,0.883 -1.199,0.058 -2.392,0.092 -3.58,0.111 C 137.368,502.49 121.711,452.075 121.711,398 121.711,246.514 244.514,123.71 396,123.71 c 147.212,0 267.322,115.974 273.985,261.54 -2.539,7.074 -5.331,14.06 -8.388,20.907 -6.383,14.244 -13.862,27.975 -22.867,40.398 -4.485,6.22 -9.389,12.067 -14.689,17.415 -2.661,2.66 -5.424,5.191 -8.288,7.567 -2.871,2.365 -5.861,4.543 -8.94,6.544 -3.075,2.01 -6.269,3.79 -9.552,5.331 -3.284,1.535 -6.639,2.901 -10.089,3.929 -3.444,1.039 -6.953,1.834 -10.506,2.383 -1.778,0.21 -3.606,0.475 -5.259,0.557 l -1.269,0.099 c -0.386,0.045 -0.973,0.033 -1.449,0.053 l -2.801,0.067 c -1.542,-10e-4 -3.079,-0.042 -4.612,-0.107 8.004,-8.907 15.317,-18.491 21.667,-28.854 4.292,-7.067 8.111,-14.521 11.065,-22.566 1.47,-4.025 2.715,-8.206 3.566,-12.618 0.841,-4.41 1.325,-9.06 0.933,-14.045 -0.2,-2.487 -0.635,-5.065 -1.468,-7.68 -0.813,-2.604 -2.045,-5.251 -3.781,-7.683 -1.712,-2.437 -3.963,-4.598 -6.432,-6.253 -2.479,-1.641 -5.153,-2.82 -7.766,-3.544 -2.618,-0.74 -5.187,-1.111 -7.656,-1.252 -0.624,-0.046 -1.229,-0.054 -1.838,-0.064 l -0.456,-0.007 -0.569,0 -0.731,0.015 -0.73,0.015 -0.895,0.042 c -0.608,0.037 -1.27,0.057 -1.831,0.118 -4.627,0.374 -9.417,1.385 -14.001,3.342 -4.577,1.941 -8.896,4.844 -12.38,8.44 -3.517,3.578 -6.196,7.746 -8.182,12.016 -0.23,0.499 -0.449,1 -0.662,1.503 -0.615,-0.691 -1.247,-1.374 -1.917,-2.038 -3.58,-3.546 -8.1,-6.639 -13.26,-8.416 -2.563,-0.898 -5.248,-1.461 -7.912,-1.701 -1.338,-0.115 -2.646,-0.173 -3.985,-0.129 l -0.657,0.036 -0.719,0.054 c -0.407,0.049 -0.814,0.093 -1.222,0.156 -0.816,0.132 -1.633,0.299 -2.44,0.527 -3.246,0.881 -6.258,2.616 -8.608,4.722 -2.376,2.106 -4.135,4.526 -5.489,6.953 -2.681,4.89 -3.868,9.843 -4.445,14.638 -1.06,9.608 0.38,18.813 3.228,27.449 2.881,8.627 7.343,16.674 13.077,23.694 5.727,7.026 12.74,12.984 20.485,17.557 2.787,1.653 5.666,3.12 8.604,4.423 -18.147,14.469 -38.498,26.231 -60.046,34.787 -13.907,5.468 -28.289,9.695 -42.941,12.495 -14.654,2.766 -29.56,4.217 -44.446,4.327 -7.546,0.042 -14.762,-0.208 -22.005,-0.993 -3.611,-0.373 -7.198,-0.868 -10.751,-1.495 -3.56,-0.597 -7.075,-1.361 -10.559,-2.211 -12.867,-3.164 -25.135,-8.094 -36.331,-14.66 14.045,-7.601 27.681,-15.9 40.959,-24.737 26.563,-17.81 51.717,-37.892 74.205,-61.027 11.234,-11.563 21.795,-23.889 31.304,-37.128 4.762,-6.611 9.237,-13.467 13.392,-20.55 4.133,-7.096 7.911,-14.442 11.267,-22.021 6.692,-15.154 11.566,-31.377 13.626,-48.181 0.513,-4.197 0.867,-8.422 1.007,-12.663 0.023,-1.061 0.064,-2.121 0.071,-3.182 l -0.004,-3.44 -0.102,-2.922 -0.057,-1.461 -0.033,-0.744 -0.066,-0.846 -0.277,-3.38 -0.15,-1.682 -0.211,-1.609 -0.436,-3.216 c -0.148,-1.07 -0.383,-2.134 -0.572,-3.201 -0.748,-4.269 -1.881,-8.48 -3.134,-12.644 -2.621,-8.306 -6.385,-16.27 -11.03,-23.648 l -1.823,-2.718 -0.917,-1.353 -0.979,-1.312 -1.962,-2.613 -2.086,-2.516 -1.047,-1.252 -1.104,-1.203 -2.211,-2.399 -2.319,-2.292 -1.165,-1.139 -1.214,-1.085 c -3.178,-2.963 -6.668,-5.553 -10.179,-8.07 -1.812,-1.181 -3.573,-2.436 -5.453,-3.499 -0.932,-0.545 -1.849,-1.113 -2.793,-1.634 l -2.857,-1.511 c -7.658,-3.947 -15.79,-6.877 -24.109,-8.856 -2.094,-0.424 -4.169,-0.958 -6.283,-1.264 l -3.16,-0.52 -3.177,-0.379 c -2.114,-0.305 -4.244,-0.376 -6.368,-0.562 -1.063,-0.058 -2.127,-0.072 -3.191,-0.108 l -1.596,-0.045 -0.399,-0.011 -0.555,-0.001 -0.731,0.006 -2.923,0.022 -3.283,0.143 c -1.119,0.04 -2.176,0.127 -3.223,0.22 -1.053,0.099 -2.112,0.159 -3.16,0.292 -4.208,0.449 -8.367,1.173 -12.5,1.998 -16.51,3.489 -32.058,10.132 -46.314,18.543 -14.309,8.394 -27.279,18.724 -39.126,30.123 -11.812,11.448 -22.411,24.099 -31.72,37.683 -9.297,13.591 -17.306,28.138 -23.617,43.55 -6.341,15.39 -10.994,31.667 -13.239,48.627 -0.558,4.237 -0.939,8.52 -1.149,12.835 -0.125,2.154 -0.164,4.323 -0.197,6.493 l -0.009,0.944 0.003,0.731 0.007,1.462 0.013,1.461 0.007,0.732 0.022,0.805 c 0.105,4.353 0.293,8.438 0.611,12.622 0.318,4.166 0.728,8.333 1.286,12.492 1.1,8.316 2.728,16.598 4.833,24.788 2.162,8.18 4.846,16.255 8.112,24.133 3.278,7.871 7.153,15.528 11.6,22.871 4.473,7.327 9.556,14.306 15.167,20.846 1.475,1.702 2.985,3.374 4.529,5.016 -0.545,0.214 -1.088,0.435 -1.634,0.646 -14.053,5.426 -28.386,9.989 -42.793,13.263 -7.198,1.628 -14.415,2.928 -21.566,3.764 z m 359.83,-57.308 c -1.791,0 -8.459,-2.397 -16.05,-7.434 -5.417,-3.418 -10.262,-7.648 -14.299,-12.56 C 500.753,458.104 495,446.642 495,432 c 0,-9.666 2.581,-16.076 8.167,-16.076 1.226,0 2.51,0.217 3.826,0.591 0.463,0.115 0.92,0.244 1.369,0.402 0.688,0.237 1.362,0.531 2.025,0.87 10.86,5.007 22.539,18.378 22.539,18.378 0,0 9.47,-33.165 35.074,-33.165 3.539,0 6.147,0.604 8.068,1.613 0.134,0.068 0.271,0.136 0.396,0.208 0.111,0.064 0.216,0.134 0.321,0.202 0.152,0.097 0.299,0.197 0.439,0.302 2.739,1.992 3.62,5.051 3.62,8.341 0.188,2.798 -0.125,5.978 -0.796,9.206 -0.013,0.062 -0.03,0.124 -0.043,0.187 -5.934,34.117 -41.567,63.613 -41.567,63.613 z m -265.104,27.071 c -3.75,-3.605 -7.279,-7.439 -10.564,-11.477 -2.187,-2.719 -4.271,-5.522 -6.251,-8.401 -1.972,-2.886 -3.809,-5.867 -5.569,-8.896 -3.51,-6.068 -6.553,-12.431 -9.156,-18.999 -5.222,-13.134 -8.655,-27.1 -10.48,-41.385 -0.482,-3.567 -0.836,-7.162 -1.114,-10.769 -0.278,-3.589 -0.442,-7.295 -0.531,-10.735 l -0.073,-5.558 c 0.014,-1.729 0.022,-3.457 0.109,-5.196 0.131,-3.473 0.412,-6.965 0.832,-10.462 1.566,-14.006 5.161,-28.052 10.074,-41.727 2.48,-6.833 5.27,-13.596 8.434,-20.208 3.108,-6.64 6.61,-13.113 10.338,-19.465 7.495,-12.683 16.236,-24.687 26.083,-35.679 4.944,-5.471 10.154,-10.71 15.69,-15.549 5.521,-4.857 11.302,-9.404 17.392,-13.451 12.149,-8.107 25.455,-14.422 39.399,-17.824 3.484,-0.831 7,-1.514 10.538,-1.978 0.882,-0.136 1.77,-0.201 2.655,-0.306 0.892,-0.103 1.776,-0.197 2.604,-0.242 l 2.555,-0.182 2.923,-0.091 0.73,-0.022 c 0.116,-0.002 0.135,-0.003 0.134,-0.004 0.005,0 0.012,0.001 0.042,0.002 l 0.332,0.006 1.326,0.023 c 0.884,0.021 1.771,0.016 2.653,0.054 1.76,0.143 3.534,0.162 5.283,0.403 l 2.63,0.305 2.609,0.431 c 1.748,0.246 3.453,0.691 5.178,1.044 13.663,3.335 26.38,10.293 36.079,20.171 l 0.923,0.909 0.874,0.956 1.748,1.909 1.644,1.998 0.821,0.997 0.768,1.04 1.537,2.074 1.427,2.152 0.715,1.072 0.658,1.11 1.315,2.215 c 3.336,6.013 5.88,12.44 7.664,19.09 0.835,3.344 1.602,6.708 2.04,10.148 0.112,0.859 0.27,1.707 0.348,2.572 l 0.253,2.591 0.132,1.293 0.065,1.233 0.133,2.452 0.035,0.613 0.01,0.716 0.011,1.462 0.034,2.924 -0.063,2.406 -0.12,2.662 c -0.203,3.548 -0.533,7.095 -1.028,10.628 -1.941,14.15 -6.364,28.04 -12.368,41.343 -6.059,13.295 -13.735,26.005 -22.482,38.046 -8.753,12.046 -18.592,23.42 -29.146,34.157 -10.563,10.736 -21.845,20.841 -33.641,30.349 -11.789,9.52 -24.13,18.398 -36.867,26.669 -16.179,10.473 -33.002,20.019 -50.324,28.381 z M 396,672.29 c -84.58,0 -160.208,-38.293 -210.522,-98.477 7.448,-1.406 14.742,-3.13 21.905,-5.11 15.824,-4.4 31.07,-9.941 45.922,-16.204 4.785,-2.029 9.524,-4.14 14.229,-6.311 0.441,0.309 0.879,0.622 1.323,0.927 3.544,2.438 7.186,4.728 10.923,6.834 14.917,8.508 31.17,14.312 47.677,17.636 4.13,0.824 8.275,1.535 12.432,2.054 4.154,0.549 8.317,0.943 12.477,1.195 4.159,0.284 8.315,0.368 12.462,0.393 l 3.107,-0.026 1.615,-0.024 1.462,-0.042 c 1.895,-0.043 4.012,-0.138 6.087,-0.227 16.284,-0.777 32.479,-2.908 48.352,-6.521 15.875,-3.569 31.425,-8.548 46.366,-14.922 27.189,-11.563 52.453,-27.585 74.176,-47.623 6.619,1.142 13.282,1.651 19.879,1.656 l 3.23,-0.071 c 0.528,-0.021 0.948,-0.005 1.564,-0.056 l 1.74,-0.121 c 2.368,-0.127 4.523,-0.438 6.738,-0.708 4.399,-0.674 8.752,-1.66 13.007,-2.947 4.261,-1.275 8.383,-2.943 12.379,-4.816 3.997,-1.879 7.845,-4.03 11.505,-6.418 3.666,-2.38 7.184,-4.95 10.522,-7.699 3.329,-2.759 6.501,-5.669 9.528,-8.696 6.026,-6.078 11.481,-12.606 16.407,-19.433 5.904,-8.153 11.113,-16.685 15.804,-25.447 C 651.959,566.968 536.287,672.29 396,672.29 Z"
     id="path16-3-5" /><path
     style="fill:#FFFFFF;"
     d="M396,96C230.314,96,96,230.314,96,396s134.314,300,300,300s300-134.314,300-300S561.686,96,396,96z   M178.608,541.98c-3.574,0.433-7.131,0.716-10.646,0.883c-1.199,0.058-2.392,0.092-3.58,0.111  C137.368,500.49,121.711,450.075,121.711,396c0-151.486,122.803-274.29,274.289-274.29c147.212,0,267.322,115.974,273.985,261.54  c-2.539,7.074-5.331,14.06-8.388,20.907c-6.383,14.244-13.862,27.975-22.867,40.398c-4.485,6.22-9.389,12.067-14.689,17.415  c-2.661,2.66-5.424,5.191-8.288,7.567c-2.871,2.365-5.861,4.543-8.94,6.544c-3.075,2.01-6.269,3.79-9.552,5.331  c-3.284,1.535-6.639,2.901-10.089,3.929c-3.444,1.039-6.953,1.834-10.506,2.383c-1.778,0.21-3.606,0.475-5.259,0.557l-1.269,0.099  c-0.386,0.045-0.973,0.033-1.449,0.053l-2.801,0.067c-1.542-0.001-3.079-0.042-4.612-0.107c8.004-8.907,15.317-18.491,21.667-28.854  c4.292-7.067,8.111-14.521,11.065-22.566c1.47-4.025,2.715-8.206,3.566-12.618c0.841-4.41,1.325-9.06,0.933-14.045  c-0.2-2.487-0.635-5.065-1.468-7.68c-0.813-2.604-2.045-5.251-3.781-7.683c-1.712-2.437-3.963-4.598-6.432-6.253  c-2.479-1.641-5.153-2.82-7.766-3.544c-2.618-0.74-5.187-1.111-7.656-1.252c-0.624-0.046-1.229-0.054-1.838-0.064l-0.456-0.007  l-0.569,0l-0.731,0.015l-0.73,0.015l-0.895,0.042c-0.608,0.037-1.27,0.057-1.831,0.118c-4.627,0.374-9.417,1.385-14.001,3.342  c-4.577,1.941-8.896,4.844-12.38,8.44c-3.517,3.578-6.196,7.746-8.182,12.016c-0.23,0.499-0.449,1-0.662,1.503  c-0.615-0.691-1.247-1.374-1.917-2.038c-3.58-3.546-8.1-6.639-13.26-8.416c-2.563-0.898-5.248-1.461-7.912-1.701  c-1.338-0.115-2.646-0.173-3.985-0.129l-0.657,0.036l-0.719,0.054c-0.407,0.049-0.814,0.093-1.222,0.156  c-0.816,0.132-1.633,0.299-2.44,0.527c-3.246,0.881-6.258,2.616-8.608,4.722c-2.376,2.106-4.135,4.526-5.489,6.953  c-2.681,4.89-3.868,9.843-4.445,14.638c-1.06,9.608,0.38,18.813,3.228,27.449c2.881,8.627,7.343,16.674,13.077,23.694  c5.727,7.026,12.74,12.984,20.485,17.557c2.787,1.653,5.666,3.12,8.604,4.423c-18.147,14.469-38.498,26.231-60.046,34.787  c-13.907,5.468-28.289,9.695-42.941,12.495c-14.654,2.766-29.56,4.217-44.446,4.327c-7.546,0.042-14.762-0.208-22.005-0.993  c-3.611-0.373-7.198-0.868-10.751-1.495c-3.56-0.597-7.075-1.361-10.559-2.211c-12.867-3.164-25.135-8.094-36.331-14.66  c14.045-7.601,27.681-15.9,40.959-24.737c26.563-17.81,51.717-37.892,74.205-61.027c11.234-11.563,21.795-23.889,31.304-37.128  c4.762-6.611,9.237-13.467,13.392-20.55c4.133-7.096,7.911-14.442,11.267-22.021c6.692-15.154,11.566-31.377,13.626-48.181  c0.513-4.197,0.867-8.422,1.007-12.663c0.023-1.061,0.064-2.121,0.071-3.182l-0.004-3.44l-0.102-2.922l-0.057-1.461l-0.033-0.744  l-0.066-0.846l-0.277-3.38l-0.15-1.682l-0.211-1.609l-0.436-3.216c-0.148-1.07-0.383-2.134-0.572-3.201  c-0.748-4.269-1.881-8.48-3.134-12.644c-2.621-8.306-6.385-16.27-11.03-23.648l-1.823-2.718l-0.917-1.353l-0.979-1.312l-1.962-2.613  l-2.086-2.516l-1.047-1.252l-1.104-1.203l-2.211-2.399l-2.319-2.292l-1.165-1.139l-1.214-1.085  c-3.178-2.963-6.668-5.553-10.179-8.07c-1.812-1.181-3.573-2.436-5.453-3.499c-0.932-0.545-1.849-1.113-2.793-1.634l-2.857-1.511  c-7.658-3.947-15.79-6.877-24.109-8.856c-2.094-0.424-4.169-0.958-6.283-1.264l-3.16-0.52l-3.177-0.379  c-2.114-0.305-4.244-0.376-6.368-0.562c-1.063-0.058-2.127-0.072-3.191-0.108l-1.596-0.045l-0.399-0.011l-0.555-0.001l-0.731,0.006  l-2.923,0.022l-3.283,0.143c-1.119,0.04-2.176,0.127-3.223,0.22c-1.053,0.099-2.112,0.159-3.16,0.292  c-4.208,0.449-8.367,1.173-12.5,1.998c-16.51,3.489-32.058,10.132-46.314,18.543c-14.309,8.394-27.279,18.724-39.126,30.123  c-11.812,11.448-22.411,24.099-31.72,37.683c-9.297,13.591-17.306,28.138-23.617,43.55c-6.341,15.39-10.994,31.667-13.239,48.627  c-0.558,4.237-0.939,8.52-1.149,12.835c-0.125,2.154-0.164,4.323-0.197,6.493l-0.009,0.944l0.003,0.731l0.007,1.462l0.013,1.461  l0.007,0.732l0.022,0.805c0.105,4.353,0.293,8.438,0.611,12.622c0.318,4.166,0.728,8.333,1.286,12.492  c1.1,8.316,2.728,16.598,4.833,24.788c2.162,8.18,4.846,16.255,8.112,24.133c3.278,7.871,7.153,15.528,11.6,22.871  c4.473,7.327,9.556,14.306,15.167,20.846c1.475,1.702,2.985,3.374,4.529,5.016c-0.545,0.214-1.088,0.435-1.634,0.646  c-14.053,5.426-28.386,9.989-42.793,13.263C192.976,539.844,185.759,541.144,178.608,541.98z M538.438,484.672  c-1.791,0-8.459-2.397-16.05-7.434c-5.417-3.418-10.262-7.648-14.299-12.56C500.753,456.104,495,444.642,495,430  c0-9.666,2.581-16.076,8.167-16.076c1.226,0,2.51,0.217,3.826,0.591c0.463,0.115,0.92,0.244,1.369,0.402  c0.688,0.237,1.362,0.531,2.025,0.87c10.86,5.007,22.539,18.378,22.539,18.378S542.396,401,568,401c3.539,0,6.147,0.604,8.068,1.613  c0.134,0.068,0.271,0.136,0.396,0.208c0.111,0.064,0.216,0.134,0.321,0.202c0.152,0.097,0.299,0.197,0.439,0.302  c2.739,1.992,3.62,5.051,3.62,8.341c0.188,2.798-0.125,5.978-0.796,9.206c-0.013,0.062-0.03,0.124-0.043,0.187  C574.071,455.176,538.438,484.672,538.438,484.672z M273.334,511.743c-3.75-3.605-7.279-7.439-10.564-11.477  c-2.187-2.719-4.271-5.522-6.251-8.401c-1.972-2.886-3.809-5.867-5.569-8.896c-3.51-6.068-6.553-12.431-9.156-18.999  c-5.222-13.134-8.655-27.1-10.48-41.385c-0.482-3.567-0.836-7.162-1.114-10.769c-0.278-3.589-0.442-7.295-0.531-10.735l-0.073-5.558  c0.014-1.729,0.022-3.457,0.109-5.196c0.131-3.473,0.412-6.965,0.832-10.462c1.566-14.006,5.161-28.052,10.074-41.727  c2.48-6.833,5.27-13.596,8.434-20.208c3.108-6.64,6.61-13.113,10.338-19.465c7.495-12.683,16.236-24.687,26.083-35.679  c4.944-5.471,10.154-10.71,15.69-15.549c5.521-4.857,11.302-9.404,17.392-13.451c12.149-8.107,25.455-14.422,39.399-17.824  c3.484-0.831,7-1.514,10.538-1.978c0.882-0.136,1.77-0.201,2.655-0.306c0.892-0.103,1.776-0.197,2.604-0.242l2.555-0.182  l2.923-0.091l0.73-0.022c0.116-0.002,0.135-0.003,0.134-0.004c0.005,0,0.012,0.001,0.042,0.002l0.332,0.006l1.326,0.023  c0.884,0.021,1.771,0.016,2.653,0.054c1.76,0.143,3.534,0.162,5.283,0.403l2.63,0.305l2.609,0.431  c1.748,0.246,3.453,0.691,5.178,1.044c13.663,3.335,26.38,10.293,36.079,20.171l0.923,0.909l0.874,0.956l1.748,1.909l1.644,1.998  l0.821,0.997l0.768,1.04l1.537,2.074l1.427,2.152l0.715,1.072l0.658,1.11l1.315,2.215c3.336,6.013,5.88,12.44,7.664,19.09  c0.835,3.344,1.602,6.708,2.04,10.148c0.112,0.859,0.27,1.707,0.348,2.572l0.253,2.591l0.132,1.293l0.065,1.233l0.133,2.452  l0.035,0.613l0.01,0.716l0.011,1.462l0.034,2.924l-0.063,2.406l-0.12,2.662c-0.203,3.548-0.533,7.095-1.028,10.628  c-1.941,14.15-6.364,28.04-12.368,41.343c-6.059,13.295-13.735,26.005-22.482,38.046c-8.753,12.046-18.592,23.42-29.146,34.157  c-10.563,10.736-21.845,20.841-33.641,30.349c-11.789,9.52-24.13,18.398-36.867,26.669  C307.479,493.835,290.656,503.381,273.334,511.743z M396,670.29c-84.58,0-160.208-38.293-210.522-98.477  c7.448-1.406,14.742-3.13,21.905-5.11c15.824-4.4,31.07-9.941,45.922-16.204c4.785-2.029,9.524-4.14,14.229-6.311  c0.441,0.309,0.879,0.622,1.323,0.927c3.544,2.438,7.186,4.728,10.923,6.834c14.917,8.508,31.17,14.312,47.677,17.636  c4.13,0.824,8.275,1.535,12.432,2.054c4.154,0.549,8.317,0.943,12.477,1.195c4.159,0.284,8.315,0.368,12.462,0.393l3.107-0.026  l1.615-0.024l1.462-0.042c1.895-0.043,4.012-0.138,6.087-0.227c16.284-0.777,32.479-2.908,48.352-6.521  c15.875-3.569,31.425-8.548,46.366-14.922c27.189-11.563,52.453-27.585,74.176-47.623c6.619,1.142,13.282,1.651,19.879,1.656  l3.23-0.071c0.528-0.021,0.948-0.005,1.564-0.056l1.74-0.121c2.368-0.127,4.523-0.438,6.738-0.708  c4.399-0.674,8.752-1.66,13.007-2.947c4.261-1.275,8.383-2.943,12.379-4.816c3.997-1.879,7.845-4.03,11.505-6.418  c3.666-2.38,7.184-4.95,10.522-7.699c3.329-2.759,6.501-5.669,9.528-8.696c6.026-6.078,11.481-12.606,16.407-19.433  c5.904-8.153,11.113-16.685,15.804-25.447C651.959,564.968,536.287,670.29,396,670.29z"
     id="path16" /></svg>